<?xml version="1.0" encoding="UTF-8"?><svg id="Layer_1" xmlns="http://www.w3.org/2000/svg" viewBox="0 0 2000 380"><defs><style>.cls-1{fill:#ffb800;}.cls-2{fill:#ff4264;}.cls-3{fill:#b630aa;}.cls-4{fill:#2cccd7;}</style></defs><path class="cls-3" d="M1505.44,293.52h-256.86c-1.25,0-2.35-.8-2.75-1.98l-5.02-15.1c-.5-1.52,.32-3.15,1.83-3.66,1.51-.5,3.15,.32,3.66,1.83l4.36,13.12h254.77v5.78Z"/><path class="cls-3" d="M1537.27,368.32c-.43,0-.86-.1-1.27-.29-.99-.49-1.62-1.49-1.63-2.6l-.06-34.19c0-1.6,1.29-2.9,2.89-2.9h0c1.6,0,2.89,1.29,2.89,2.89l.05,28.28,91.25-71.16c.51-.4,1.14-.61,1.78-.61h349.58V110.69h-12.07c-1.6,0-2.89-1.29-2.89-2.89s1.29-2.89,2.89-2.89h14.96c1.6,0,2.89,1.29,2.89,2.89v182.83c0,1.6-1.29,2.89-2.89,2.89h-351.47l-95.13,74.18c-.52,.41-1.15,.61-1.78,.61Z"/><path class="cls-1" d="M1508.41,339.31c-.43,0-.86-.1-1.27-.29-.99-.49-1.62-1.49-1.63-2.6l-.13-71.91h-285.67c-1.25,0-2.35-.8-2.75-1.98l-60.74-182.83c-.29-.88-.14-1.85,.4-2.6,.54-.75,1.42-1.2,2.34-1.2h797.81c1.6,0,2.89,1.29,2.89,2.89v182.83c0,1.6-1.29,2.89-2.89,2.89h-351.47l-95.13,74.18c-.52,.41-1.15,.61-1.78,.61Zm-286.6-80.58h286.47c1.6,0,2.89,1.29,2.89,2.89l.12,68.89,91.26-71.16c.51-.4,1.14-.61,1.78-.61h349.58V81.68h-790.91l58.82,177.05Z"/><g><polygon class="cls-2" points="103.63 111.74 77.92 144.76 119.45 149.92 77.92 155.08 103.63 188.1 70.62 162.38 65.45 203.92 60.29 162.38 27.27 188.1 52.99 155.08 11.46 149.92 52.99 144.76 27.27 111.74 60.29 137.46 65.45 95.93 70.62 137.46 103.63 111.74"/><polygon class="cls-3" points="337.53 137.99 311.81 171.01 353.34 176.17 311.81 181.33 337.53 214.35 304.51 188.63 299.34 230.17 294.18 188.63 261.16 214.35 286.88 181.33 245.35 176.17 286.88 171.01 261.16 137.99 294.18 163.71 299.34 122.17 304.51 163.71 337.53 137.99"/><polygon class="cls-4" points="207.89 188.06 172.76 233.16 229.49 240.21 172.76 247.26 207.89 292.36 162.79 257.23 155.74 313.96 148.69 257.23 103.59 292.36 138.72 247.26 81.99 240.21 138.72 233.16 103.59 188.06 148.69 223.19 155.74 166.46 162.79 223.19 207.89 188.06"/><polygon class="cls-1" points="261.18 33.36 225.93 78.61 282.85 85.69 225.93 92.76 261.18 138.01 215.92 102.76 208.85 159.69 201.78 102.76 156.52 138.01 191.77 92.76 134.85 85.69 191.77 78.61 156.52 33.36 201.78 68.61 208.85 11.68 215.92 68.61 261.18 33.36"/></g><g><path class="cls-4" d="M1320.18,158.81l-13.45,2.05c0-7.07-4.45-16.76-16.42-16.76s-20.63,9.58-20.63,25.88c0,18.47,10.94,25.88,22.68,25.88,9.69,0,16.42-6.27,19.84-10.83l8.55,8.78c-3.08,4.33-11.97,14.59-28.73,14.59-22,0-36.93-14.48-36.93-38.42s14.59-38.42,35-38.42c22.12,0,29.98,15.85,30.09,27.25Z"/><path class="cls-4" d="M1421.07,207.6s-2.96,.8-7.64,.8c-22.34,0-16.07-27.59-33.85-27.59h-4.33v26.79h-14.36v-75.24h24.74c18.92,0,29.3,7.52,29.3,24.74,0,10.49-5.93,17.67-15.73,21.2,8.67,4.33,8.78,18.58,18.7,18.58,1.25,0,2.28-.23,2.28-.23l.91,10.94Zm-37.39-37.16c9.92,0,16.99-4.67,16.99-13.22s-5.7-13.34-15.85-13.34h-9.58v26.56h8.43Z"/><path class="cls-4" d="M1474.08,144.22v19.15h30.21v11.4h-30.21v20.98h34.54v11.85h-48.9v-75.24h48.9v11.85h-34.54Z"/><path class="cls-4" d="M1592.42,190.73h-28.73l-5.7,16.87h-14.82l27.25-75.24h15.27l27.02,75.24h-14.59l-5.7-16.87Zm-3.76-11.06l-8.21-23.94c-.8-2.28-1.6-5.47-2.28-8.32h-.34c-.57,2.85-1.48,6.04-2.28,8.44l-8.09,23.82h21.2Z"/><path class="cls-4" d="M1659.45,144.22h-23.26v-11.85h60.99v11.85h-23.37v63.38h-14.36v-63.38Z"/><path class="cls-4" d="M1800.92,169.99c0,23.48-14.93,38.3-36.25,38.3s-36.14-14.82-36.14-38.3,15.05-38.42,36.14-38.42,36.25,14.82,36.25,38.42Zm-14.48,0c0-16.19-9.12-25.88-21.77-25.88s-21.66,9.69-21.66,25.88,9.12,25.88,21.66,25.88,21.77-9.8,21.77-25.88Z"/><path class="cls-4" d="M1902.73,207.6s-2.96,.8-7.64,.8c-22.34,0-16.07-27.59-33.85-27.59h-4.33v26.79h-14.36v-75.24h24.74c18.92,0,29.3,7.52,29.3,24.74,0,10.49-5.93,17.67-15.73,21.2,8.67,4.33,8.78,18.58,18.7,18.58,1.25,0,2.28-.23,2.28-.23l.91,10.94Zm-37.39-37.16c9.92,0,16.99-4.67,16.99-13.22s-5.7-13.34-15.85-13.34h-9.58v26.56h8.43Z"/></g><g><path class="cls-2" d="M412.34,128.02h-44.62v-35.51h132.91v35.51h-44.62v118.67h-43.68v-118.67Z"/><path class="cls-2" d="M664.61,246.45s-6.31,2.1-20.79,2.1c-50.46,0-37.61-48.82-67.51-48.82h-2.57v46.95h-43.68V92.51h57.7c43.92,0,66.11,17.29,66.11,55.83,0,21.49-9.34,35.74-27.8,43.68,13.78,4.67,14.02,21.49,31.3,21.49,2.57,0,4.9-.47,4.9-.47l2.34,33.4Zm-82.46-76.15c17.99,0,29.2-7.71,29.2-21.49,0-14.95-10.04-22.89-26.39-22.89h-11.21v44.38h8.41Z"/><path class="cls-2" d="M695.66,92.51h42.51V246.69h-42.51V92.51Z"/><path class="cls-2" d="M834.41,188.99c1.4,5.37,3.74,13.55,4.44,18.92h.93c.7-5.37,2.8-13.55,4.21-18.69l25.46-96.71h44.15l-50.22,154.17h-49.05l-50.23-154.17h44.62l25.69,96.47Z"/><path class="cls-2" d="M939.51,92.51h42.51V246.69h-42.51V92.51Z"/><path class="cls-2" d="M1107.46,218.42h-47.42l-7.94,28.26h-44.62l51.86-154.17h48.59l51.39,154.17h-44.15l-7.71-28.26Zm-8.64-31.3l-10.28-37.14c-1.4-5.14-3.5-13.31-4.21-18.69h-.93c-.7,5.37-3.04,13.55-4.44,18.92l-10.28,36.91h30.13Z"/></g></svg>